<svg width="20" height="19" viewBox="0 0 20 19" fill="none" xmlns="http://www.w3.org/2000/svg">
<g clip-path="url(#clip0_698_243)">
<path d="M1.46224 12.5331L0.353908 17.3164C0.315674 17.4913 0.316985 17.6725 0.357744 17.8467C0.398503 18.021 0.477681 18.184 0.589494 18.3238C0.701308 18.4635 0.842931 18.5766 1.00402 18.6546C1.16511 18.7326 1.34159 18.7737 1.52057 18.7747C1.60397 18.7832 1.68801 18.7832 1.77141 18.7747L6.58391 17.6664L15.8239 8.46141L10.6672 3.31641L1.46224 12.5331Z" fill="#2DCC5F"/>
<path d="M18.7283 3.85372L15.2866 0.412056C15.0603 0.186927 14.7541 0.0605469 14.4349 0.0605469C14.1157 0.0605469 13.8095 0.186927 13.5833 0.412056L11.6699 2.32539L16.8208 7.47622L18.7341 5.56289C18.8461 5.45035 18.9347 5.31684 18.9951 5.16999C19.0554 5.02315 19.0861 4.86585 19.0856 4.7071C19.0851 4.54835 19.0532 4.39126 18.9919 4.24483C18.9306 4.0984 18.841 3.96549 18.7283 3.85372Z" fill="#2DCC5F"/>
</g>
<defs>
<clipPath id="clip0_698_243">
<rect width="21" height="21" fill="white" transform="translate(-1 -1)"/>
</clipPath>
</defs>
</svg>
