<svg width="129" height="135" viewBox="0 0 129 135" fill="none" xmlns="http://www.w3.org/2000/svg">
<g clip-path="url(#clip0_783_322)">
<path d="M64.5004 90.9175C58.3048 90.9175 52.363 88.4502 47.982 84.0586C43.6011 79.6669 41.1399 73.7105 41.1399 67.4997C41.1399 61.2889 43.6011 55.3325 47.982 50.9408C52.363 46.5492 58.3048 44.0819 64.5004 44.0819C70.6961 44.0819 76.6379 46.5492 81.0189 50.9408C85.3998 55.3325 87.861 61.2889 87.861 67.4997C87.861 73.7105 85.3998 79.6669 81.0189 84.0586C76.6379 88.4502 70.6961 90.9175 64.5004 90.9175ZM114.092 73.9898C114.359 71.8487 114.559 69.7077 114.559 67.4997C114.559 65.2917 114.359 63.0838 114.092 60.8089L128.175 49.9029C129.443 48.8993 129.777 47.0928 128.976 45.6208L115.627 22.4707C114.826 20.9987 113.024 20.3965 111.555 20.9987L94.9359 27.6895C91.4652 25.0801 87.861 22.8052 83.6561 21.1325L81.1866 3.40194C81.051 2.61388 80.6415 1.89937 80.0307 1.38501C79.4198 0.870655 78.6471 0.589657 77.8493 0.591809H51.1515C49.4829 0.591809 48.0813 1.79615 47.8143 3.40194L45.3448 21.1325C41.1399 22.8052 37.5357 25.0801 34.0649 27.6895L17.4456 20.9987C15.9772 20.3965 14.1751 20.9987 13.3742 22.4707L0.0252501 45.6208C-0.842428 47.0928 -0.441961 48.8993 0.826185 49.9029L14.9093 60.8089C14.6423 63.0838 14.4421 65.2917 14.4421 67.4997C14.4421 69.7077 14.6423 71.8487 14.9093 73.9898L0.826185 85.0965C-0.441961 86.1001 -0.842428 87.9066 0.0252501 89.3786L13.3742 112.529C14.1751 114.001 15.9772 114.536 17.4456 114.001L34.0649 107.243C37.5357 109.919 41.1399 112.194 45.3448 113.867L47.8143 131.597C48.0813 133.203 49.4829 134.408 51.1515 134.408H77.8493C79.518 134.408 80.9196 133.203 81.1866 131.597L83.6561 113.867C87.861 112.127 91.4652 109.919 94.9359 107.243L111.555 114.001C113.024 114.536 114.826 114.001 115.627 112.529L128.976 89.3786C129.777 87.9066 129.443 86.1001 128.175 85.0965L114.092 73.9898Z" fill="#2DCC5F"/>
</g>
<defs>
<clipPath id="clip0_783_322">
<rect width="129" height="135" fill="white"/>
</clipPath>
</defs>
</svg>
