<svg width="260" height="281" viewBox="0 0 260 281" fill="none" xmlns="http://www.w3.org/2000/svg">
<path d="M130.001 189.158C117.65 189.158 105.804 184.254 97.07 175.527C88.3361 166.799 83.4295 154.961 83.4295 142.618C83.4295 130.275 88.3361 118.438 97.07 109.71C105.804 100.983 117.65 96.0793 130.001 96.0793C142.353 96.0793 154.198 100.983 162.932 109.71C171.666 118.438 176.573 130.275 176.573 142.618C176.573 154.961 171.666 166.799 162.932 175.527C154.198 184.254 142.353 189.158 130.001 189.158ZM228.866 155.516C229.398 151.261 229.797 147.006 229.797 142.618C229.797 138.23 229.398 133.842 228.866 129.322L256.942 107.648C259.47 105.653 260.135 102.063 258.539 99.1376L231.926 53.1303C230.329 50.205 226.737 49.0083 223.809 50.205L190.677 63.5019C183.758 58.3161 176.573 53.7952 168.19 50.4709L163.266 15.2341C162.996 13.668 162.18 12.248 160.962 11.2258C159.744 10.2036 158.204 9.64516 156.613 9.64944H103.389C100.062 9.64944 97.2679 12.0429 96.7356 15.2341L91.8124 50.4709C83.4295 53.7952 76.2442 58.3161 69.325 63.5019L36.1926 50.205C33.2653 49.0083 29.6726 50.205 28.0759 53.1303L1.46355 99.1376C-0.266248 102.063 0.532123 105.653 3.06029 107.648L31.1363 129.322C30.604 133.842 30.2049 138.23 30.2049 142.618C30.2049 147.006 30.604 151.261 31.1363 155.516L3.06029 177.589C0.532123 179.584 -0.266248 183.174 1.46355 186.099L28.0759 232.107C29.6726 235.032 33.2653 236.096 36.1926 235.032L69.325 221.602C76.2442 226.921 83.4295 231.442 91.8124 234.766L96.7356 270.003C97.2679 273.194 100.062 275.587 103.389 275.587H156.613C159.94 275.587 162.734 273.194 163.266 270.003L168.19 234.766C176.573 231.309 183.758 226.921 190.677 221.602L223.809 235.032C226.737 236.096 230.329 235.032 231.926 232.107L258.539 186.099C260.135 183.174 259.47 179.584 256.942 177.589L228.866 155.516Z" fill="#2DCC5F"/>
</svg>
