<svg width="201" height="205" viewBox="0 0 201 205" fill="none" xmlns="http://www.w3.org/2000/svg">
<g clip-path="url(#clip0_783_320)">
<path d="M100.501 138.08C90.8654 138.08 81.6245 134.257 74.8111 127.451C67.9977 120.646 64.17 111.416 64.17 101.792C64.17 92.1684 67.9977 82.9386 74.8111 76.1334C81.6245 69.3282 90.8654 65.5051 100.501 65.5051C110.137 65.5051 119.378 69.3282 126.191 76.1334C133.004 82.9386 136.832 92.1684 136.832 101.792C136.832 111.416 133.004 120.646 126.191 127.451C119.378 134.257 110.137 138.08 100.501 138.08ZM177.627 111.849C178.042 108.532 178.353 105.214 178.353 101.792C178.353 98.3711 178.042 94.9497 177.627 91.4246L199.529 74.5251C201.501 72.9699 202.02 70.1706 200.775 67.8897L180.014 32.017C178.768 29.7361 175.966 28.803 173.682 29.7361L147.835 40.1039C142.437 36.0605 136.832 32.5354 130.292 29.9435L126.452 2.46876C126.241 1.24761 125.604 0.140428 124.654 -0.656603C123.704 -1.45363 122.502 -1.88906 121.262 -1.88572H79.7404C77.1454 -1.88572 74.9655 -0.0195152 74.5503 2.46876L70.7096 29.9435C64.17 32.5354 58.5647 36.0605 53.1669 40.1039L27.32 29.7361C25.0364 28.803 22.2337 29.7361 20.9881 32.017L0.227494 67.8897C-1.12194 70.1706 -0.499125 72.9699 1.47313 74.5251L23.3755 91.4246C22.9603 94.9497 22.6489 98.3711 22.6489 101.792C22.6489 105.214 22.9603 108.532 23.3755 111.849L1.47313 129.06C-0.499125 130.615 -1.12194 133.414 0.227494 135.695L20.9881 171.568C22.2337 173.849 25.0364 174.678 27.32 173.849L53.1669 163.377C58.5647 167.524 64.17 171.049 70.7096 173.641L74.5503 201.116C74.9655 203.604 77.1454 205.471 79.7404 205.471H121.262C123.857 205.471 126.037 203.604 126.452 201.116L130.292 173.641C136.832 170.946 142.437 167.524 147.835 163.377L173.682 173.849C175.966 174.678 178.768 173.849 180.014 171.568L200.775 135.695C202.02 133.414 201.501 130.615 199.529 129.06L177.627 111.849Z" fill="#2DCC5F"/>
</g>
<defs>
<clipPath id="clip0_783_320">
<rect width="201" height="205" fill="white"/>
</clipPath>
</defs>
</svg>
