<svg width="94" height="96" viewBox="0 0 94 96" fill="none" xmlns="http://www.w3.org/2000/svg">
<g clip-path="url(#clip0_783_318)">
<path d="M46.9988 64.8823C42.4817 64.8823 38.1497 63.1036 34.9557 59.9376C31.7616 56.7715 29.9672 52.4774 29.9672 48C29.9672 43.5225 31.7616 39.2284 34.9557 36.0623C38.1497 32.8963 42.4817 31.1176 46.9988 31.1176C51.5158 31.1176 55.8479 32.8963 59.0419 36.0623C62.236 39.2284 64.0304 43.5225 64.0304 48C64.0304 52.4774 62.236 56.7715 59.0419 59.9376C55.8479 63.1036 51.5158 64.8823 46.9988 64.8823ZM83.1544 52.6788C83.349 51.1353 83.495 49.5917 83.495 48C83.495 46.4082 83.349 44.8164 83.1544 43.1764L93.422 35.3141C94.3466 34.5905 94.5899 33.2882 94.0059 32.227L84.2736 15.5376C83.6897 14.4764 82.3758 14.0423 81.3052 14.4764L69.1885 19.3C66.6581 17.4188 64.0304 15.7788 60.9647 14.5729L59.1642 1.79054C59.0654 1.22241 58.7668 0.707305 58.3215 0.336494C57.8761 -0.0343173 57.3127 -0.236894 56.7311 -0.235343H37.2665C36.0499 -0.235343 35.028 0.632893 34.8334 1.79054L33.0329 14.5729C29.9672 15.7788 27.3395 17.4188 24.8091 19.3L12.6924 14.4764C11.6218 14.0423 10.3079 14.4764 9.724 15.5376L-0.00832455 32.227C-0.640925 33.2882 -0.348955 34.5905 0.575615 35.3141L10.8432 43.1764C10.6486 44.8164 10.5026 46.4082 10.5026 48C10.5026 49.5917 10.6486 51.1353 10.8432 52.6788L0.575615 60.6858C-0.348955 61.4094 -0.640925 62.7117 -0.00832455 63.7729L9.724 80.4623C10.3079 81.5235 11.6218 81.9094 12.6924 81.5235L24.8091 76.6517C27.3395 78.5811 29.9672 80.2211 33.0329 81.427L34.8334 94.2094C35.028 95.367 36.0499 96.2353 37.2665 96.2353H56.7311C57.9477 96.2353 58.9696 95.367 59.1642 94.2094L60.9647 81.427C64.0304 80.1729 66.6581 78.5811 69.1885 76.6517L81.3052 81.5235C82.3758 81.9094 83.6897 81.5235 84.2736 80.4623L94.0059 63.7729C94.5899 62.7117 94.3466 61.4094 93.422 60.6858L83.1544 52.6788Z" fill="#2DCC5F"/>
</g>
<defs>
<clipPath id="clip0_783_318">
<rect width="94" height="96" fill="white"/>
</clipPath>
</defs>
</svg>
