<svg width="64" height="63" viewBox="0 0 64 63" fill="none" xmlns="http://www.w3.org/2000/svg">
<g clip-path="url(#clip0_783_316)">
<path d="M31.9995 42.7295C28.974 42.7295 26.0725 41.5464 23.9332 39.4405C21.7939 37.3347 20.5921 34.4785 20.5921 31.5003C20.5921 28.5222 21.7939 25.666 23.9332 23.5601C26.0725 21.4542 28.974 20.2712 31.9995 20.2712C35.0249 20.2712 37.9264 21.4542 40.0657 23.5601C42.205 25.666 43.4069 28.5222 43.4069 31.5003C43.4069 34.4785 42.205 37.3347 40.0657 39.4405C37.9264 41.5464 35.0249 42.7295 31.9995 42.7295ZM56.2158 34.6124C56.3461 33.5857 56.4439 32.5591 56.4439 31.5003C56.4439 30.4416 56.3461 29.3828 56.2158 28.292L63.0928 23.0624C63.7121 22.5812 63.875 21.7149 63.4839 21.0091L56.9654 9.90825C56.5743 9.20241 55.6943 8.91367 54.9773 9.20242L46.8617 12.4107C45.1669 11.1595 43.4069 10.0687 41.3536 9.26658L40.1476 0.764498C40.0814 0.386611 39.8815 0.0439929 39.5832 -0.202649C39.2849 -0.449291 38.9075 -0.584034 38.518 -0.583002H25.481C24.6661 -0.583002 23.9817 -0.00550164 23.8513 0.764498L22.6454 9.26658C20.5921 10.0687 18.8321 11.1595 17.1373 12.4107L9.0217 9.20242C8.30466 8.91367 7.42466 9.20241 7.03355 9.90825L0.515032 21.0091C0.0913284 21.7149 0.286884 22.5812 0.906144 23.0624L7.78318 28.292C7.65281 29.3828 7.55503 30.4416 7.55503 31.5003C7.55503 32.5591 7.65281 33.5857 7.78318 34.6124L0.906144 39.9382C0.286884 40.4195 0.0913284 41.2857 0.515032 41.9916L7.03355 53.0924C7.42466 53.7982 8.30466 54.0549 9.0217 53.7982L17.1373 50.5578C18.8321 51.8412 20.5921 52.932 22.6454 53.7341L23.8513 62.2362C23.9817 63.0062 24.6661 63.5837 25.481 63.5837H38.518C39.3328 63.5837 40.0173 63.0062 40.1476 62.2362L41.3536 53.7341C43.4069 52.8999 45.1669 51.8412 46.8617 50.5578L54.9773 53.7982C55.6943 54.0549 56.5743 53.7982 56.9654 53.0924L63.4839 41.9916C63.875 41.2857 63.7121 40.4195 63.0928 39.9382L56.2158 34.6124Z" fill="#2DCC5F"/>
</g>
<defs>
<clipPath id="clip0_783_316">
<rect width="64" height="63" fill="white"/>
</clipPath>
</defs>
</svg>
