<svg width="531" height="930" viewBox="0 0 531 930" fill="none" xmlns="http://www.w3.org/2000/svg">
<path d="M149.278 45.0665L211.787 81.1563L149.278 117.246L149.278 45.0665Z" stroke="#2DCC5F" stroke-opacity="0.58"/>
<path d="M213.288 81.3956L275.797 117.485L213.288 153.575L213.288 81.3956Z" stroke="#2DCC5F" stroke-opacity="0.58"/>
<path d="M213.288 7.58311L275.797 43.6729L213.288 79.7626L213.288 7.58311Z" stroke="#2DCC5F" stroke-opacity="0.58"/>
<path d="M213.288 301.68L275.797 337.77L213.288 373.859L213.288 301.68Z" stroke="#2DCC5F" stroke-opacity="0.58"/>
<path d="M213.288 155.208L275.797 191.298L213.288 227.388L213.288 155.208Z" stroke="#2DCC5F" stroke-opacity="0.58"/>
<path d="M149.278 118.881L211.787 154.971L149.278 191.06L149.278 118.881Z" stroke="#2DCC5F" stroke-opacity="0.58"/>
<path d="M149.278 338.01L211.787 374.1L149.278 410.189L149.278 338.01Z" stroke="#2DCC5F" stroke-opacity="0.58"/>
<path d="M213.288 374.339L275.797 410.429L213.288 446.518L213.288 374.339Z" stroke="#2DCC5F" stroke-opacity="0.58"/>
<path d="M213.288 448.151L275.797 484.241L213.288 520.331L213.288 448.151Z" stroke="#2DCC5F" stroke-opacity="0.58"/>
<path d="M149.278 411.822L211.787 447.912L149.278 484.002L149.278 411.822Z" stroke="#2DCC5F" stroke-opacity="0.58"/>
<path d="M149.278 191.538L211.787 227.628L149.278 263.718L149.278 191.538Z" stroke="#2DCC5F" stroke-opacity="0.58"/>
<path d="M213.288 227.867L275.797 263.957L213.288 300.047L213.288 227.867Z" stroke="#2DCC5F" stroke-opacity="0.58"/>
<path d="M149.278 265.349L211.787 301.438L149.278 337.528L149.278 265.349Z" stroke="#2DCC5F" stroke-opacity="0.58"/>
<path d="M149.278 484.482L211.787 520.571L149.278 556.661L149.278 484.482Z" stroke="#2DCC5F" stroke-opacity="0.58"/>
<path d="M213.288 520.813L275.797 556.902L213.288 592.992L213.288 520.813Z" stroke="#2DCC5F" stroke-opacity="0.58"/>
<path d="M213.288 741.095L275.797 777.185L213.288 813.274L213.288 741.095Z" stroke="#2DCC5F" stroke-opacity="0.58"/>
<path d="M213.288 594.623L275.797 630.713L213.288 666.803L213.288 594.623Z" stroke="#2DCC5F" stroke-opacity="0.58"/>
<path d="M149.278 558.294L211.787 594.384L149.278 630.474L149.278 558.294Z" stroke="#2DCC5F" stroke-opacity="0.58"/>
<path d="M149.278 777.424L211.787 813.514L149.278 849.603L149.278 777.424Z" stroke="#2DCC5F" stroke-opacity="0.58"/>
<path d="M213.288 813.756L275.797 849.846L213.288 885.935L213.288 813.756Z" stroke="#2DCC5F" stroke-opacity="0.58"/>
<path d="M149.278 851.235L211.787 887.325L149.278 923.415L149.278 851.235Z" stroke="#2DCC5F" stroke-opacity="0.58"/>
<path d="M149.278 630.953L211.787 667.043L149.278 703.133L149.278 630.953Z" stroke="#2DCC5F" stroke-opacity="0.58"/>
<path d="M213.288 667.282L275.797 703.372L213.288 739.462L213.288 667.282Z" stroke="#2DCC5F" stroke-opacity="0.58"/>
<path d="M149.278 704.766L211.787 740.855L149.278 776.945L149.278 704.766Z" stroke="#2DCC5F" stroke-opacity="0.58"/>
<line x1="149.103" y1="44.3967" x2="213.112" y2="6.91372" stroke="#2DCC5F" stroke-opacity="0.58"/>
<path d="M21.8364 45.0665L84.3457 81.1563L21.8364 117.246L21.8364 45.0665Z" stroke="#2DCC5F" stroke-opacity="0.58"/>
<path d="M85.8462 81.3956L148.355 117.485L85.8462 153.575L85.8462 81.3956Z" stroke="#2DCC5F" stroke-opacity="0.58"/>
<path d="M85.8462 7.58311L148.355 43.6729L85.8462 79.7626L85.8462 7.58311Z" stroke="#2DCC5F" stroke-opacity="0.58"/>
<path d="M85.8462 301.68L148.355 337.77L85.8462 373.859L85.8462 301.68Z" stroke="#2DCC5F" stroke-opacity="0.58"/>
<path d="M85.8462 155.208L148.355 191.298L85.8462 227.388L85.8462 155.208Z" stroke="#2DCC5F" stroke-opacity="0.58"/>
<path d="M21.8364 118.881L84.3457 154.971L21.8364 191.06L21.8364 118.881Z" stroke="#2DCC5F" stroke-opacity="0.58"/>
<path d="M21.8364 338.01L84.3457 374.1L21.8364 410.189L21.8364 338.01Z" stroke="#2DCC5F" stroke-opacity="0.58"/>
<path d="M85.8462 374.339L148.355 410.429L85.8462 446.518L85.8462 374.339Z" stroke="#2DCC5F" stroke-opacity="0.58"/>
<path d="M85.8462 448.151L148.355 484.241L85.8462 520.331L85.8462 448.151Z" stroke="#2DCC5F" stroke-opacity="0.58"/>
<path d="M21.8364 411.822L84.3457 447.912L21.8364 484.002L21.8364 411.822Z" stroke="#2DCC5F" stroke-opacity="0.58"/>
<path d="M21.8364 191.538L84.3457 227.628L21.8364 263.718L21.8364 191.538Z" stroke="#2DCC5F" stroke-opacity="0.58"/>
<path d="M85.8462 227.867L148.355 263.957L85.8462 300.047L85.8462 227.867Z" stroke="#2DCC5F" stroke-opacity="0.58"/>
<path d="M21.8364 265.349L84.3457 301.438L21.8364 337.528L21.8364 265.349Z" stroke="#2DCC5F" stroke-opacity="0.58"/>
<path d="M21.8364 484.482L84.3457 520.571L21.8364 556.661L21.8364 484.482Z" stroke="#2DCC5F" stroke-opacity="0.58"/>
<path d="M85.8462 520.813L148.355 556.902L85.8462 592.992L85.8462 520.813Z" stroke="#2DCC5F" stroke-opacity="0.58"/>
<path d="M85.8462 741.095L148.355 777.185L85.8462 813.274L85.8462 741.095Z" stroke="#2DCC5F" stroke-opacity="0.58"/>
<path d="M85.8462 594.623L148.355 630.713L85.8462 666.803L85.8462 594.623Z" stroke="#2DCC5F" stroke-opacity="0.58"/>
<path d="M21.8364 558.294L84.3457 594.384L21.8364 630.474L21.8364 558.294Z" stroke="#2DCC5F" stroke-opacity="0.58"/>
<path d="M21.8364 777.424L84.3457 813.514L21.8364 849.603L21.8364 777.424Z" stroke="#2DCC5F" stroke-opacity="0.58"/>
<path d="M85.8462 813.756L148.355 849.846L85.8462 885.935L85.8462 813.756Z" stroke="#2DCC5F" stroke-opacity="0.58"/>
<path d="M21.8364 851.235L84.3457 887.325L21.8364 923.415L21.8364 851.235Z" stroke="#2DCC5F" stroke-opacity="0.58"/>
<path d="M21.8364 630.953L84.3457 667.043L21.8364 703.133L21.8364 630.953Z" stroke="#2DCC5F" stroke-opacity="0.58"/>
<path d="M85.8462 667.282L148.355 703.372L85.8462 739.462L85.8462 667.282Z" stroke="#2DCC5F" stroke-opacity="0.58"/>
<path d="M21.8364 704.766L84.3457 740.855L21.8364 776.945L21.8364 704.766Z" stroke="#2DCC5F" stroke-opacity="0.58"/>
<line x1="21.6614" y1="44.3967" x2="85.6707" y2="6.91372" stroke="#2DCC5F" stroke-opacity="0.58"/>
<path d="M403.278 44.0665L465.787 80.1563L403.278 116.246L403.278 44.0665Z" stroke="#2DCC5F" stroke-opacity="0.58"/>
<path d="M467.288 80.3956L529.797 116.485L467.288 152.575L467.288 80.3956Z" stroke="#2DCC5F" stroke-opacity="0.58"/>
<path d="M467.288 6.58311L529.797 42.6729L467.288 78.7626L467.288 6.58311Z" stroke="#2DCC5F" stroke-opacity="0.58"/>
<path d="M467.288 300.68L529.797 336.77L467.288 372.859L467.288 300.68Z" stroke="#2DCC5F" stroke-opacity="0.58"/>
<path d="M467.288 154.208L529.797 190.298L467.288 226.388L467.288 154.208Z" stroke="#2DCC5F" stroke-opacity="0.58"/>
<path d="M403.278 117.881L465.787 153.971L403.278 190.06L403.278 117.881Z" stroke="#2DCC5F" stroke-opacity="0.58"/>
<path d="M403.278 337.01L465.787 373.1L403.278 409.189L403.278 337.01Z" stroke="#2DCC5F" stroke-opacity="0.58"/>
<path d="M467.288 373.339L529.797 409.429L467.288 445.518L467.288 373.339Z" stroke="#2DCC5F" stroke-opacity="0.58"/>
<path d="M467.288 447.151L529.797 483.241L467.288 519.331L467.288 447.151Z" stroke="#2DCC5F" stroke-opacity="0.58"/>
<path d="M403.278 410.822L465.787 446.912L403.278 483.002L403.278 410.822Z" stroke="#2DCC5F" stroke-opacity="0.58"/>
<path d="M403.278 190.538L465.787 226.628L403.278 262.718L403.278 190.538Z" stroke="#2DCC5F" stroke-opacity="0.58"/>
<path d="M467.288 226.867L529.797 262.957L467.288 299.047L467.288 226.867Z" stroke="#2DCC5F" stroke-opacity="0.58"/>
<path d="M403.278 264.349L465.787 300.438L403.278 336.528L403.278 264.349Z" stroke="#2DCC5F" stroke-opacity="0.58"/>
<path d="M403.278 483.482L465.787 519.571L403.278 555.661L403.278 483.482Z" stroke="#2DCC5F" stroke-opacity="0.58"/>
<path d="M467.288 519.813L529.797 555.902L467.288 591.992L467.288 519.813Z" stroke="#2DCC5F" stroke-opacity="0.58"/>
<path d="M467.288 740.095L529.797 776.185L467.288 812.274L467.288 740.095Z" stroke="#2DCC5F" stroke-opacity="0.58"/>
<path d="M467.288 593.623L529.797 629.713L467.288 665.803L467.288 593.623Z" stroke="#2DCC5F" stroke-opacity="0.58"/>
<path d="M403.278 557.294L465.787 593.384L403.278 629.474L403.278 557.294Z" stroke="#2DCC5F" stroke-opacity="0.58"/>
<path d="M403.278 776.424L465.787 812.514L403.278 848.603L403.278 776.424Z" stroke="#2DCC5F" stroke-opacity="0.58"/>
<path d="M467.288 812.756L529.797 848.846L467.288 884.935L467.288 812.756Z" stroke="#2DCC5F" stroke-opacity="0.58"/>
<path d="M403.278 850.235L465.787 886.325L403.278 922.415L403.278 850.235Z" stroke="#2DCC5F" stroke-opacity="0.58"/>
<path d="M403.278 629.953L465.787 666.043L403.278 702.133L403.278 629.953Z" stroke="#2DCC5F" stroke-opacity="0.58"/>
<path d="M467.288 666.282L529.797 702.372L467.288 738.462L467.288 666.282Z" stroke="#2DCC5F" stroke-opacity="0.58"/>
<path d="M403.278 703.766L465.787 739.855L403.278 775.945L403.278 703.766Z" stroke="#2DCC5F" stroke-opacity="0.58"/>
<line x1="403.103" y1="43.3967" x2="467.112" y2="5.91372" stroke="#2DCC5F" stroke-opacity="0.58"/>
<path d="M275.836 44.0665L338.346 80.1563L275.836 116.246L275.836 44.0665Z" stroke="#2DCC5F" stroke-opacity="0.58"/>
<path d="M339.846 80.3956L402.355 116.485L339.846 152.575L339.846 80.3956Z" stroke="#2DCC5F" stroke-opacity="0.58"/>
<path d="M339.846 6.58311L402.355 42.6729L339.846 78.7626L339.846 6.58311Z" stroke="#2DCC5F" stroke-opacity="0.58"/>
<path d="M339.846 300.68L402.355 336.77L339.846 372.859L339.846 300.68Z" stroke="#2DCC5F" stroke-opacity="0.58"/>
<path d="M339.846 154.208L402.355 190.298L339.846 226.388L339.846 154.208Z" stroke="#2DCC5F" stroke-opacity="0.58"/>
<path d="M275.836 117.881L338.346 153.971L275.836 190.06L275.836 117.881Z" stroke="#2DCC5F" stroke-opacity="0.58"/>
<path d="M275.836 337.01L338.346 373.1L275.836 409.189L275.836 337.01Z" stroke="#2DCC5F" stroke-opacity="0.58"/>
<path d="M339.846 373.339L402.355 409.429L339.846 445.518L339.846 373.339Z" stroke="#2DCC5F" stroke-opacity="0.58"/>
<path d="M339.846 447.151L402.355 483.241L339.846 519.331L339.846 447.151Z" stroke="#2DCC5F" stroke-opacity="0.58"/>
<path d="M275.836 410.822L338.346 446.912L275.836 483.002L275.836 410.822Z" stroke="#2DCC5F" stroke-opacity="0.58"/>
<path d="M275.836 190.538L338.346 226.628L275.836 262.718L275.836 190.538Z" stroke="#2DCC5F" stroke-opacity="0.58"/>
<path d="M339.846 226.867L402.355 262.957L339.846 299.047L339.846 226.867Z" stroke="#2DCC5F" stroke-opacity="0.58"/>
<path d="M275.836 264.349L338.346 300.438L275.836 336.528L275.836 264.349Z" stroke="#2DCC5F" stroke-opacity="0.58"/>
<path d="M275.836 483.482L338.346 519.571L275.836 555.661L275.836 483.482Z" stroke="#2DCC5F" stroke-opacity="0.58"/>
<path d="M339.846 519.813L402.355 555.902L339.846 591.992L339.846 519.813Z" stroke="#2DCC5F" stroke-opacity="0.58"/>
<path d="M339.846 740.095L402.355 776.185L339.846 812.274L339.846 740.095Z" stroke="#2DCC5F" stroke-opacity="0.58"/>
<path d="M339.846 593.623L402.355 629.713L339.846 665.803L339.846 593.623Z" stroke="#2DCC5F" stroke-opacity="0.58"/>
<path d="M275.836 557.294L338.346 593.384L275.836 629.474L275.836 557.294Z" stroke="#2DCC5F" stroke-opacity="0.58"/>
<path d="M275.836 776.424L338.346 812.514L275.836 848.603L275.836 776.424Z" stroke="#2DCC5F" stroke-opacity="0.58"/>
<path d="M339.846 812.756L402.355 848.846L339.846 884.935L339.846 812.756Z" stroke="#2DCC5F" stroke-opacity="0.58"/>
<path d="M275.836 850.235L338.346 886.325L275.836 922.415L275.836 850.235Z" stroke="#2DCC5F" stroke-opacity="0.58"/>
<path d="M275.836 629.953L338.346 666.043L275.836 702.133L275.836 629.953Z" stroke="#2DCC5F" stroke-opacity="0.58"/>
<path d="M339.846 666.282L402.355 702.372L339.846 738.462L339.846 666.282Z" stroke="#2DCC5F" stroke-opacity="0.58"/>
<path d="M275.836 703.766L338.346 739.855L275.836 775.945L275.836 703.766Z" stroke="#2DCC5F" stroke-opacity="0.58"/>
<line x1="275.661" y1="43.3967" x2="339.671" y2="5.91372" stroke="#2DCC5F" stroke-opacity="0.58"/>
</svg>
