<svg width="25" height="25" viewBox="0 0 28 28" fill="none" xmlns="http://www.w3.org/2000/svg">
<path d="M13.9993 14C12.166 14 10.5966 13.3472 9.29102 12.0416C7.98546 10.7361 7.33268 9.16663 7.33268 7.33329C7.33268 5.49996 7.98546 3.93052 9.29102 2.62496C10.5966 1.3194 12.166 0.666626 13.9993 0.666626C15.8327 0.666626 17.4021 1.3194 18.7077 2.62496C20.0132 3.93052 20.666 5.49996 20.666 7.33329C20.666 9.16663 20.0132 10.7361 18.7077 12.0416C17.4021 13.3472 15.8327 14 13.9993 14ZM0.666016 27.3333V22.6666C0.666016 21.7222 0.909349 20.8544 1.39602 20.0633C1.88268 19.2722 2.52824 18.6677 3.33268 18.25C5.0549 17.3888 6.8049 16.7433 8.58268 16.3133C10.3605 15.8833 12.166 15.6677 13.9993 15.6666C15.8327 15.6655 17.6382 15.8811 19.416 16.3133C21.1938 16.7455 22.9438 17.3911 24.666 18.25C25.4716 18.6666 26.1177 19.2711 26.6043 20.0633C27.091 20.8555 27.3338 21.7233 27.3327 22.6666V27.3333H0.666016Z" fill="#2DCC5F"/>
</svg>
