<svg width="35" height="20" viewBox="0 0 40 25" fill="none" xmlns="http://www.w3.org/2000/svg">
<path d="M12.5341 4.27083C15.2563 1.97917 18.9299 0 23.3327 0C27.7355 0 31.4091 1.97917 34.1313 4.27083C36.8466 6.5625 38.7771 9.29861 39.7563 11.2014C40.0827 11.8403 40.0827 12.5972 39.7563 13.2361C38.7771 15.1389 36.8466 17.875 34.1313 20.1667C31.4091 22.4653 27.7355 24.4444 23.3327 24.4444C18.9299 24.4444 15.2563 22.4653 12.5341 20.1736C11.4091 19.2222 10.416 18.1944 9.56878 17.1806L3.33962 20.8056C2.47156 21.3125 1.3674 21.1736 0.652118 20.4653C-0.06316 19.7569 -0.208993 18.6597 0.291007 17.7847L3.47156 12.2222L0.291007 6.65972C-0.208993 5.78472 -0.0562155 4.6875 0.659062 3.97917C1.37434 3.27083 2.47156 3.13194 3.34656 3.63889L9.57573 7.27083C10.423 6.25694 11.416 5.22917 12.541 4.27778L12.5341 4.27083ZM31.1104 12.2222C31.1104 11.6329 30.8763 11.0676 30.4596 10.6509C30.0428 10.2341 29.4776 10 28.8882 10C28.2989 10 27.7336 10.2341 27.3169 10.6509C26.9001 11.0676 26.666 11.6329 26.666 12.2222C26.666 12.8116 26.9001 13.3768 27.3169 13.7936C27.7336 14.2103 28.2989 14.4444 28.8882 14.4444C29.4776 14.4444 30.0428 14.2103 30.4596 13.7936C30.8763 13.3768 31.1104 12.8116 31.1104 12.2222Z" fill="#2DCC5F"/>
</svg>
