<svg width="32" height="32" viewBox="0 0 32 32" fill="none" xmlns="http://www.w3.org/2000/svg">
<g clip-path="url(#clip0_735_89)">
<path d="M15.9378 11.8219C16.6251 11.8219 17.1822 11.2647 17.1822 10.5775C17.1822 9.89016 16.6251 9.33301 15.9378 9.33301C15.2505 9.33301 14.6934 9.89016 14.6934 10.5775C14.6934 11.2647 15.2505 11.8219 15.9378 11.8219Z" fill="#2DCC5F"/>
<path d="M18.6675 20.4441H16.8898V13.333H14.2231C13.9873 13.333 13.7613 13.4267 13.5946 13.5934C13.4279 13.7601 13.3342 13.9861 13.3342 14.2219C13.3342 14.4576 13.4279 14.6837 13.5946 14.8504C13.7613 15.0171 13.9873 15.1108 14.2231 15.1108H15.112V20.4441H13.3342C13.0985 20.4441 12.8724 20.5378 12.7057 20.7045C12.539 20.8712 12.4453 21.0973 12.4453 21.333C12.4453 21.5688 12.539 21.7948 12.7057 21.9615C12.8724 22.1282 13.0985 22.2219 13.3342 22.2219H18.6675C18.9033 22.2219 19.1294 22.1282 19.2961 21.9615C19.4628 21.7948 19.5564 21.5688 19.5564 21.333C19.5564 21.0973 19.4628 20.8712 19.2961 20.7045C19.1294 20.5378 18.9033 20.4441 18.6675 20.4441Z" fill="#2DCC5F"/>
<path d="M16.0007 5.33301C13.891 5.33301 11.8287 5.9586 10.0746 7.13067C8.32045 8.30273 6.95328 9.96864 6.14594 11.9177C5.33861 13.8668 5.12737 16.0115 5.53895 18.0806C5.95052 20.1498 6.96642 22.0504 8.45818 23.5421C9.94994 25.0339 11.8506 26.0498 13.9197 26.4614C15.9888 26.873 18.1335 26.6617 20.0826 25.8544C22.0317 25.0471 23.6976 23.6799 24.8697 21.9258C26.0417 20.1716 26.6673 18.1093 26.6673 15.9997C26.6673 13.1707 25.5435 10.4576 23.5431 8.4572C21.5427 6.45681 18.8296 5.33301 16.0007 5.33301ZM16.0007 24.8886C14.2426 24.8886 12.524 24.3672 11.0623 23.3905C9.60048 22.4138 8.46117 21.0255 7.78839 19.4013C7.11561 17.7771 6.93958 15.9898 7.28256 14.2655C7.62554 12.5413 8.47213 10.9574 9.71526 9.71428C10.9584 8.47115 12.5422 7.62456 14.2665 7.28158C15.9908 6.9386 17.7781 7.11463 19.4023 7.78741C21.0265 8.46019 22.4148 9.5995 23.3915 11.0613C24.3682 12.523 24.8895 14.2416 24.8895 15.9997C24.8895 17.167 24.6596 18.3229 24.2129 19.4013C23.7662 20.4798 23.1115 21.4597 22.286 22.2851C21.4606 23.1105 20.4807 23.7652 19.4023 24.2119C18.3238 24.6586 17.168 24.8886 16.0007 24.8886Z" fill="#2DCC5F"/>
</g>
<defs>
<clipPath id="clip0_735_89">
<rect width="32" height="32" fill="white"/>
</clipPath>
</defs>
</svg>
