<svg width="85" height="85" viewBox="0 0 85 85" fill="none" xmlns="http://www.w3.org/2000/svg">
<path d="M61.7893 40.1389H44.8602V23.2097C44.8602 22.5835 44.6114 21.983 44.1686 21.5402C43.7258 21.0974 43.1252 20.8486 42.499 20.8486C41.8728 20.8486 41.2723 21.0974 40.8295 21.5402C40.3867 21.983 40.1379 22.5835 40.1379 23.2097V40.1389H23.2088C22.5826 40.1389 21.982 40.3877 21.5392 40.8305C21.0964 41.2733 20.8477 41.8738 20.8477 42.5C20.8477 43.1262 21.0964 43.7268 21.5392 44.1696C21.982 44.6124 22.5826 44.8611 23.2088 44.8611H40.1379V61.7903C40.1379 62.4165 40.3867 63.0171 40.8295 63.4599C41.2723 63.9027 41.8728 64.1514 42.499 64.1514C43.1252 64.1514 43.7258 63.9027 44.1686 63.4599C44.6114 63.0171 44.8602 62.4165 44.8602 61.7903V44.8611H61.7893C62.4155 44.8611 63.0161 44.6124 63.4589 44.1696C63.9017 43.7268 64.1504 43.1262 64.1504 42.5C64.1504 41.8738 63.9017 41.2733 63.4589 40.8305C63.0161 40.3877 62.4155 40.1389 61.7893 40.1389Z" fill="#2DCC5F"/>
<path d="M42.5005 4.72266C35.0287 4.72266 27.7248 6.93828 21.5122 11.0894C15.2997 15.2404 10.4576 21.1405 7.59834 28.0435C4.73902 34.9465 3.9909 42.5423 5.44856 49.8705C6.90623 57.1987 10.5042 63.93 15.7875 69.2134C21.0708 74.4967 27.8022 78.0947 35.1304 79.5523C42.4585 81.01 50.0544 80.2619 56.9574 77.4026C63.8604 74.5432 69.7605 69.7012 73.9115 63.4886C78.0626 57.2761 80.2782 49.9722 80.2782 42.5004C80.2782 32.4811 76.2981 22.8722 69.2134 15.7875C62.1287 8.7028 52.5197 4.72266 42.5005 4.72266ZM42.5005 75.556C35.9627 75.556 29.5717 73.6173 24.1358 69.9851C18.6998 66.3529 14.463 61.1904 11.9611 55.1503C9.4592 49.1101 8.80459 42.4638 10.08 36.0516C11.3555 29.6395 14.5037 23.7495 19.1266 19.1266C23.7495 14.5037 29.6395 11.3555 36.0516 10.08C42.4638 8.80458 49.1102 9.45919 55.1503 11.9611C61.1904 14.463 66.353 18.6998 69.9851 24.1358C73.6173 29.5717 75.556 35.9627 75.556 42.5004C75.556 51.2673 72.0734 59.6751 65.8743 65.8742C59.6751 72.0734 51.2673 75.556 42.5005 75.556Z" fill="#2DCC5F"/>
</svg>
