<svg width="930" height="277" viewBox="0 0 930 277" fill="none" xmlns="http://www.w3.org/2000/svg">
<path d="M44.9659 127.619L81.0557 65.1099L117.145 127.619L44.9659 127.619Z" stroke="#2DCC5F"/>
<path d="M81.295 63.6099L117.385 1.10059L153.475 63.6099L81.295 63.6099Z" stroke="#2DCC5F"/>
<path d="M7.48252 63.6099L43.5723 1.10059L79.662 63.6099L7.48252 63.6099Z" stroke="#2DCC5F"/>
<path d="M301.579 63.6099L337.669 1.10059L373.759 63.6099L301.579 63.6099Z" stroke="#2DCC5F"/>
<path d="M155.108 63.6099L191.197 1.10059L227.287 63.6099L155.108 63.6099Z" stroke="#2DCC5F"/>
<path d="M118.78 127.619L154.87 65.1099L190.96 127.619L118.78 127.619Z" stroke="#2DCC5F"/>
<path d="M337.909 127.619L373.999 65.1099L410.089 127.619L337.909 127.619Z" stroke="#2DCC5F"/>
<path d="M374.238 63.6099L410.328 1.10059L446.418 63.6099L374.238 63.6099Z" stroke="#2DCC5F"/>
<path d="M448.051 63.6099L484.141 1.10059L520.23 63.6099L448.051 63.6099Z" stroke="#2DCC5F"/>
<path d="M411.722 127.619L447.812 65.1099L483.901 127.619L411.722 127.619Z" stroke="#2DCC5F"/>
<path d="M191.438 127.619L227.527 65.1099L263.617 127.619L191.438 127.619Z" stroke="#2DCC5F"/>
<path d="M227.767 63.6099L263.856 1.10059L299.946 63.6099L227.767 63.6099Z" stroke="#2DCC5F"/>
<path d="M265.248 127.619L301.338 65.1099L337.428 127.619L265.248 127.619Z" stroke="#2DCC5F"/>
<path d="M484.381 127.619L520.471 65.1099L556.56 127.619L484.381 127.619Z" stroke="#2DCC5F"/>
<path d="M520.712 63.6099L556.802 1.10059L592.892 63.6099L520.712 63.6099Z" stroke="#2DCC5F"/>
<path d="M740.994 63.6099L777.084 1.10059L813.174 63.6099L740.994 63.6099Z" stroke="#2DCC5F"/>
<path d="M594.523 63.6099L630.612 1.10059L666.702 63.6099L594.523 63.6099Z" stroke="#2DCC5F"/>
<path d="M558.193 127.619L594.283 65.1099L630.373 127.619L558.193 127.619Z" stroke="#2DCC5F"/>
<path d="M777.323 127.619L813.413 65.1099L849.503 127.619L777.323 127.619Z" stroke="#2DCC5F"/>
<path d="M813.655 63.6099L849.745 1.10059L885.835 63.6099L813.655 63.6099Z" stroke="#2DCC5F"/>
<path d="M851.135 127.619L887.225 65.1099L923.314 127.619L851.135 127.619Z" stroke="#2DCC5F"/>
<path d="M630.853 127.619L666.942 65.1099L703.032 127.619L630.853 127.619Z" stroke="#2DCC5F"/>
<path d="M667.182 63.6099L703.271 1.10059L739.361 63.6099L667.182 63.6099Z" stroke="#2DCC5F"/>
<path d="M704.665 127.619L740.755 65.1099L776.845 127.619L704.665 127.619Z" stroke="#2DCC5F"/>
<line x1="44.2961" y1="127.795" x2="6.81314" y2="63.7858" stroke="#2DCC5F"/>
<path d="M44.9659 255.061L81.0557 192.552L117.145 255.061H44.9659Z" stroke="#2DCC5F"/>
<path d="M81.295 191.052L117.385 128.542L153.475 191.052H81.295Z" stroke="#2DCC5F"/>
<path d="M7.48252 191.052L43.5723 128.542L79.662 191.052H7.48252Z" stroke="#2DCC5F"/>
<path d="M301.579 191.052L337.669 128.542L373.759 191.052H301.579Z" stroke="#2DCC5F"/>
<path d="M155.108 191.052L191.197 128.542L227.287 191.052H155.108Z" stroke="#2DCC5F"/>
<path d="M118.78 255.061L154.87 192.552L190.96 255.061H118.78Z" stroke="#2DCC5F"/>
<path d="M337.909 255.061L373.999 192.552L410.089 255.061H337.909Z" stroke="#2DCC5F"/>
<path d="M374.238 191.052L410.328 128.542L446.418 191.052H374.238Z" stroke="#2DCC5F"/>
<path d="M448.051 191.052L484.141 128.542L520.23 191.052H448.051Z" stroke="#2DCC5F"/>
<path d="M411.722 255.061L447.812 192.552L483.901 255.061H411.722Z" stroke="#2DCC5F"/>
<path d="M191.438 255.061L227.527 192.552L263.617 255.061H191.438Z" stroke="#2DCC5F"/>
<path d="M227.767 191.052L263.856 128.542L299.946 191.052H227.767Z" stroke="#2DCC5F"/>
<path d="M265.248 255.061L301.338 192.552L337.428 255.061H265.248Z" stroke="#2DCC5F"/>
<path d="M484.381 255.061L520.471 192.552L556.56 255.061H484.381Z" stroke="#2DCC5F"/>
<path d="M520.712 191.052L556.802 128.542L592.892 191.052H520.712Z" stroke="#2DCC5F"/>
<path d="M740.994 191.052L777.084 128.542L813.174 191.052H740.994Z" stroke="#2DCC5F"/>
<path d="M594.523 191.052L630.612 128.542L666.702 191.052H594.523Z" stroke="#2DCC5F"/>
<path d="M558.193 255.061L594.283 192.552L630.373 255.061H558.193Z" stroke="#2DCC5F"/>
<path d="M777.323 255.061L813.413 192.552L849.503 255.061H777.323Z" stroke="#2DCC5F"/>
<path d="M813.655 191.052L849.745 128.542L885.835 191.052H813.655Z" stroke="#2DCC5F"/>
<path d="M851.135 255.061L887.225 192.552L923.314 255.061H851.135Z" stroke="#2DCC5F"/>
<path d="M630.853 255.061L666.942 192.552L703.032 255.061H630.853Z" stroke="#2DCC5F"/>
<path d="M667.182 191.052L703.271 128.542L739.361 191.052H667.182Z" stroke="#2DCC5F"/>
<path d="M704.665 255.061L740.755 192.552L776.845 255.061H704.665Z" stroke="#2DCC5F"/>
<line x1="44.2961" y1="255.237" x2="6.81314" y2="191.228" stroke="#2DCC5F"/>
</svg>
