<svg width="150" height="1809" viewBox="0 0 150 1809" fill="none" xmlns="http://www.w3.org/2000/svg">
<path d="M21.8364 924.067L84.3457 960.156L21.8364 996.246L21.8364 924.067Z" stroke="#F7FFF9"/>
<path d="M85.8462 960.395L148.355 996.485L85.8462 1032.57L85.8462 960.395Z" stroke="#F7FFF9"/>
<path d="M85.8462 886.583L148.355 922.673L85.8462 958.763L85.8462 886.583Z" stroke="#F7FFF9"/>
<path d="M85.8462 1180.68L148.355 1216.77L85.8462 1252.86L85.8462 1180.68Z" stroke="#F7FFF9"/>
<path d="M85.8462 1034.21L148.355 1070.3L85.8462 1106.39L85.8462 1034.21Z" stroke="#F7FFF9"/>
<path d="M21.8364 997.881L84.3457 1033.97L21.8364 1070.06L21.8364 997.881Z" stroke="#F7FFF9"/>
<path d="M21.8364 1217.01L84.3457 1253.1L21.8364 1289.19L21.8364 1217.01Z" stroke="#F7FFF9"/>
<path d="M85.8462 1253.34L148.355 1289.43L85.8462 1325.52L85.8462 1253.34Z" stroke="#F7FFF9"/>
<path d="M85.8462 1327.15L148.355 1363.24L85.8462 1399.33L85.8462 1327.15Z" stroke="#F7FFF9"/>
<path d="M21.8364 1290.82L84.3457 1326.91L21.8364 1363L21.8364 1290.82Z" stroke="#F7FFF9"/>
<path d="M21.8364 1070.54L84.3457 1106.63L21.8364 1142.72L21.8364 1070.54Z" stroke="#F7FFF9"/>
<path d="M85.8462 1106.87L148.355 1142.96L85.8462 1179.05L85.8462 1106.87Z" stroke="#F7FFF9"/>
<path d="M21.8364 1144.35L84.3457 1180.44L21.8364 1216.53L21.8364 1144.35Z" stroke="#F7FFF9"/>
<path d="M21.8364 1363.48L84.3457 1399.57L21.8364 1435.66L21.8364 1363.48Z" stroke="#F7FFF9"/>
<path d="M85.8462 1399.81L148.355 1435.9L85.8462 1471.99L85.8462 1399.81Z" stroke="#F7FFF9"/>
<path d="M85.8462 1620.09L148.355 1656.18L85.8462 1692.27L85.8462 1620.09Z" stroke="#F7FFF9"/>
<path d="M85.8462 1473.62L148.355 1509.71L85.8462 1545.8L85.8462 1473.62Z" stroke="#F7FFF9"/>
<path d="M21.8364 1437.29L84.3457 1473.38L21.8364 1509.47L21.8364 1437.29Z" stroke="#F7FFF9"/>
<path d="M21.8364 1656.42L84.3457 1692.51L21.8364 1728.6L21.8364 1656.42Z" stroke="#F7FFF9"/>
<path d="M85.8462 1692.76L148.355 1728.85L85.8462 1764.94L85.8462 1692.76Z" stroke="#F7FFF9"/>
<path d="M21.8364 1730.24L84.3457 1766.33L21.8364 1802.42L21.8364 1730.24Z" stroke="#F7FFF9"/>
<path d="M21.8364 1509.95L84.3457 1546.04L21.8364 1582.13L21.8364 1509.95Z" stroke="#F7FFF9"/>
<path d="M85.8462 1546.28L148.355 1582.37L85.8462 1618.46L85.8462 1546.28Z" stroke="#F7FFF9"/>
<path d="M21.8364 1583.77L84.3457 1619.86L21.8364 1655.95L21.8364 1583.77Z" stroke="#F7FFF9"/>
<line x1="21.6614" y1="923.397" x2="85.6707" y2="885.914" stroke="#F7FFF9"/>
<path d="M21.8677 44.0667L84.377 80.1564L21.8677 116.246L21.8677 44.0667Z" stroke="#F7FFF9"/>
<path d="M85.8774 80.3954L148.387 116.485L85.8774 152.575L85.8774 80.3954Z" stroke="#F7FFF9"/>
<path d="M85.8774 6.5831L148.387 42.6729L85.8774 78.7626L85.8774 6.5831Z" stroke="#F7FFF9"/>
<path d="M85.8774 300.679L148.387 336.769L85.8774 372.859L85.8774 300.679Z" stroke="#F7FFF9"/>
<path d="M85.8774 154.208L148.387 190.298L85.8774 226.387L85.8774 154.208Z" stroke="#F7FFF9"/>
<path d="M21.8677 117.881L84.377 153.971L21.8677 190.06L21.8677 117.881Z" stroke="#F7FFF9"/>
<path d="M21.8677 337.01L84.377 373.1L21.8677 409.19L21.8677 337.01Z" stroke="#F7FFF9"/>
<path d="M85.8774 373.339L148.387 409.429L85.8774 445.518L85.8774 373.339Z" stroke="#F7FFF9"/>
<path d="M85.8774 447.151L148.387 483.241L85.8774 519.331L85.8774 447.151Z" stroke="#F7FFF9"/>
<path d="M21.8677 410.822L84.377 446.912L21.8677 483.002L21.8677 410.822Z" stroke="#F7FFF9"/>
<path d="M21.8677 190.538L84.377 226.628L21.8677 262.718L21.8677 190.538Z" stroke="#F7FFF9"/>
<path d="M85.8774 226.867L148.387 262.957L85.8774 299.047L85.8774 226.867Z" stroke="#F7FFF9"/>
<path d="M21.8677 264.349L84.377 300.439L21.8677 336.528L21.8677 264.349Z" stroke="#F7FFF9"/>
<path d="M21.8677 483.482L84.377 519.572L21.8677 555.661L21.8677 483.482Z" stroke="#F7FFF9"/>
<path d="M85.8774 519.812L148.387 555.902L85.8774 591.992L85.8774 519.812Z" stroke="#F7FFF9"/>
<path d="M85.8774 740.095L148.387 776.184L85.8774 812.274L85.8774 740.095Z" stroke="#F7FFF9"/>
<path d="M85.8774 593.623L148.387 629.713L85.8774 665.802L85.8774 593.623Z" stroke="#F7FFF9"/>
<path d="M21.8677 557.294L84.377 593.384L21.8677 629.474L21.8677 557.294Z" stroke="#F7FFF9"/>
<path d="M21.8677 776.423L84.377 812.513L21.8677 848.603L21.8677 776.423Z" stroke="#F7FFF9"/>
<path d="M85.8774 812.756L148.387 848.846L85.8774 884.935L85.8774 812.756Z" stroke="#F7FFF9"/>
<path d="M21.8677 850.236L84.377 886.326L21.8677 922.415L21.8677 850.236Z" stroke="#F7FFF9"/>
<path d="M21.8677 629.954L84.377 666.043L21.8677 702.133L21.8677 629.954Z" stroke="#F7FFF9"/>
<path d="M85.8774 666.282L148.387 702.372L85.8774 738.462L85.8774 666.282Z" stroke="#F7FFF9"/>
<path d="M21.8677 703.766L84.377 739.856L21.8677 775.945L21.8677 703.766Z" stroke="#F7FFF9"/>
<line x1="21.6927" y1="43.397" x2="85.702" y2="5.91409" stroke="#F7FFF9"/>
</svg>
