<svg width="25" height="25" viewBox="0 0 28 28" fill="none" xmlns="http://www.w3.org/2000/svg">
<path d="M13.9993 14.0003C12.166 14.0003 10.5966 13.3475 9.29102 12.042C7.98546 10.7364 7.33268 9.16699 7.33268 7.33366C7.33268 5.50033 7.98546 3.93088 9.29102 2.62533C10.5966 1.31977 12.166 0.666992 13.9993 0.666992C15.8327 0.666992 17.4021 1.31977 18.7077 2.62533C20.0132 3.93088 20.666 5.50033 20.666 7.33366C20.666 9.16699 20.0132 10.7364 18.7077 12.042C17.4021 13.3475 15.8327 14.0003 13.9993 14.0003ZM0.666016 27.3337V22.667C0.666016 21.7225 0.909349 20.8548 1.39602 20.0637C1.88268 19.2725 2.52824 18.6681 3.33268 18.2503C5.0549 17.3892 6.8049 16.7437 8.58268 16.3137C10.3605 15.8837 12.166 15.6681 13.9993 15.667C15.8327 15.6659 17.6382 15.8814 19.416 16.3137C21.1938 16.7459 22.9438 17.3914 24.666 18.2503C25.4716 18.667 26.1177 19.2714 26.6043 20.0637C27.091 20.8559 27.3338 21.7237 27.3327 22.667V27.3337H0.666016Z" fill="#F7FFF9"/>
</svg>
